<?xml version="1.0" encoding="UTF-8" standalone="no"?>
<!-- Created with Inkscape (http://www.inkscape.org/) -->

<svg
   xmlns:dc="http://purl.org/dc/elements/1.1/"
   xmlns:cc="http://creativecommons.org/ns#"
   xmlns:rdf="http://www.w3.org/1999/02/22-rdf-syntax-ns#"
   xmlns:svg="http://www.w3.org/2000/svg"
   xmlns="http://www.w3.org/2000/svg"
   xmlns:sodipodi="http://sodipodi.sourceforge.net/DTD/sodipodi-0.dtd"
   xmlns:inkscape="http://www.inkscape.org/namespaces/inkscape"
   width="1600px"
   height="1200px"
   id="svg2985"
   version="1.1"
   inkscape:version="0.48.4 r9939"
   sodipodi:docname="New document 2">
  <defs
     id="defs2987" />
  <sodipodi:namedview
     id="base"
     pagecolor="#ffffff"
     bordercolor="#666666"
     borderopacity="1.0"
     inkscape:pageopacity="0.0"
     inkscape:pageshadow="2"
     inkscape:zoom="0.42426407"
     inkscape:cx="284.78245"
     inkscape:cy="633.57156"
     inkscape:current-layer="layer2"
     inkscape:document-units="px"
     showgrid="false"
     inkscape:window-width="1920"
     inkscape:window-height="1017"
     inkscape:window-x="-8"
     inkscape:window-y="-8"
     inkscape:window-maximized="1" />
  <metadata
     id="metadata2990">
    <rdf:RDF>
      <cc:Work
         rdf:about="">
        <dc:format>image/svg+xml</dc:format>
        <dc:type
           rdf:resource="http://purl.org/dc/dcmitype/StillImage" />
        <dc:title></dc:title>
      </cc:Work>
    </rdf:RDF>
  </metadata>
  <g
     id="layer1"
     inkscape:label="Layer 1"
     inkscape:groupmode="layer">
    <g
       inkscape:groupmode="layer"
       id="layer2"
       inkscape:label="Layer">
      <rect
         style="fill:#f2e007;fill-opacity:1"
         id="rect3795"
         width="66.666664"
         height="2696.6665"
         x="1165.2125"
         y="-1318.8705"
         transform="matrix(0.70710678,0.70710678,-0.70710678,0.70710678,0,0)" />
      <rect
         style="fill:#f2e007;fill-opacity:1"
         id="rect3797"
         width="248.33333"
         height="3086.6667"
         x="1251.7452"
         y="-1599.3126"
         transform="matrix(0.70710678,0.70710678,-0.70710678,0.70710678,0,0)" />
      <rect
         style="fill:#f2e007;fill-opacity:1"
         id="rect3791"
         width="662.63727"
         height="2357.5239"
         x="449.4451"
         y="-1101.5693"
         transform="matrix(0.70710678,0.70710678,-0.70710678,0.70710678,0,0)" />
      <path
         transform="matrix(0.0653465,0,0,0.0653465,1075.115,246.34)"
         d="m 1546.2068,662.00958 a 297.5741,297.5741 0 1 1 -595.14821,0 297.5741,297.5741 0 1 1 595.14821,0 z"
         sodipodi:ry="297.5741"
         sodipodi:rx="297.5741"
         sodipodi:cy="662.00958"
         sodipodi:cx="1248.6327"
         id="path3781"
         style="fill:#33929f;fill-opacity:1"
         sodipodi:type="arc" />
      <path
         sodipodi:type="arc"
         style="fill:#33929f;fill-opacity:1"
         id="path3783"
         sodipodi:cx="1248.6327"
         sodipodi:cy="662.00958"
         sodipodi:rx="297.5741"
         sodipodi:ry="297.5741"
         d="m 1546.2068,662.00958 a 297.5741,297.5741 0 1 1 -595.14821,0 297.5741,297.5741 0 1 1 595.14821,0 z"
         transform="matrix(0.2752475,0,0,0.2752475,396.09837,258.38611)"
         inkscape:transform-center-x="-525.61604"
         inkscape:transform-center-y="173.24116" />
      <path
         inkscape:transform-center-y="115.90954"
         inkscape:transform-center-x="-351.67114"
         transform="matrix(0.18415839,0,0,0.18415839,740.5578,167.68539)"
         d="m 1546.2068,662.00958 a 297.5741,297.5741 0 1 1 -595.14821,0 297.5741,297.5741 0 1 1 595.14821,0 z"
         sodipodi:ry="297.5741"
         sodipodi:rx="297.5741"
         sodipodi:cy="662.00958"
         sodipodi:cx="1248.6327"
         id="path3785"
         style="fill:#33929f;fill-opacity:1"
         sodipodi:type="arc" />
      <path
         sodipodi:type="arc"
         style="fill:#33929f;fill-opacity:1"
         id="path3787"
         sodipodi:cx="1248.6327"
         sodipodi:cy="662.00958"
         sodipodi:rx="297.5741"
         sodipodi:ry="297.5741"
         d="m 1546.2068,662.00958 a 297.5741,297.5741 0 1 1 -595.14821,0 297.5741,297.5741 0 1 1 595.14821,0 z"
         transform="matrix(0.11881185,0,0,0.11881185,1008.9457,80.719923)" />
      <path
         transform="matrix(0.1722772,0,0,0.1722772,604.54359,64.770788)"
         d="m 1546.2068,662.00958 a 297.5741,297.5741 0 1 1 -595.14821,0 297.5741,297.5741 0 1 1 595.14821,0 z"
         sodipodi:ry="297.5741"
         sodipodi:rx="297.5741"
         sodipodi:cy="662.00958"
         sodipodi:cx="1248.6327"
         id="path3789"
         style="fill:#33929f;fill-opacity:1"
         sodipodi:type="arc" />
      <path
         sodipodi:type="star"
         style="fill:#33929f;fill-opacity:1"
         id="path3799"
         sodipodi:sides="12"
         sodipodi:cx="380"
         sodipodi:cy="150"
         sodipodi:r1="312.78766"
         sodipodi:r2="253.35799"
         sodipodi:arg1="1.7044042"
         sodipodi:arg2="1.9662036"
         inkscape:flatsided="false"
         inkscape:rounded="0"
         inkscape:randomized="0"
         d="m 338.33333,460.00001 -55.92279,-76.19119 -93.49494,13.82573 -10.33496,-93.9449 -87.881861,-34.77404 38.022111,-86.52615 -58.720903,-74.05613 76.191193,-55.92279 -13.82573,-93.494941 93.9449,-10.334963 34.77404,-87.881856 86.52615,38.02211 74.05613,-58.7209 55.92279,76.191185 93.49494,-13.825727 10.33496,93.9449001 87.88186,34.7740399 -38.02211,86.526152 58.7209,74.05613 -76.19119,55.92279 13.82573,93.49494 -93.9449,10.33496 -34.77404,87.88186 -86.52615,-38.02211 z"
         transform="matrix(1.3725616,0,0,1.3725616,-179.90675,190.78242)" />
      <path
         style="fill:#f2e007;fill-opacity:1;stroke:none"
         d="m 110.62693,307.18461 197.41239,-87.29899 c 0,0 59.24649,60.20556 141.89921,87.76767 82.6527,27.56212 160.34624,-41.34317 196.71343,-3.44526 36.36719,37.8979 38.02025,91.2995 38.02025,91.2995 0,0 4.95917,15.50369 -11.57138,24.11685 C 499.71557,456.89355 339.97935,514.3456 168.91933,560.8802 125.93993,572.93863 124.28686,455.79966 122.63381,411.01122 120.98076,366.22279 110.62693,307.18461 110.62693,307.18461 z"
         id="path3809"
         inkscape:connector-curvature="0"
         sodipodi:nodetypes="ccsscccsc" />
    </g>
    <g
       transform="matrix(3.2375958,0,0,3.2375958,-162.53893,-396.49406)"
       style="font-size:18px;font-style:normal;font-weight:normal;line-height:125%;letter-spacing:0px;word-spacing:0px;fill:#000000;fill-opacity:1;stroke:none;font-family:Sans"
       id="flowRoot2993">
      <path
         d="m 185.57995,362.68643 -48.375,0 0,-103.42969 19.6875,0 0,84.65625 28.6875,0 z"
         style="font-size:144px;font-variant:normal;font-weight:bold;font-stretch:normal;fill:#e15275;font-family:Levenim MT;-inkscape-font-specification:Levenim MT;fill-opacity:1"
         id="path3002"
         inkscape:connector-curvature="0" />
      <path
         d="m 257.01745,362.68643 -56.46094,0 0,-103.42969 56.46094,0 0,19.26562 -36.91406,0 0,18.70313 36.91406,0 0,18.91406 -36.91406,0 0,27.21094 36.91406,0 z"
         style="font-size:144px;font-variant:normal;font-weight:bold;font-stretch:normal;fill:#e15275;font-family:Levenim MT;-inkscape-font-specification:Levenim MT;fill-opacity:1"
         id="path3004"
         inkscape:connector-curvature="0" />
      <path
         d="m 378.16589,314.59268 c 0.28113,8.57816 -2.06262,17.15628 -7.03125,25.73437 -9.60948,16.64063 -24.42196,24.96094 -44.4375,24.96094 -10.50006,0 -19.89848,-2.22656 -28.19532,-6.67969 -8.62502,-4.64062 -15.44533,-11.39061 -20.46093,-20.25 -4.92189,-8.62497 -7.38282,-17.92964 -7.38282,-27.91406 0,-13.68744 4.52343,-25.59367 13.57032,-35.71875 10.73434,-12.04678 24.70308,-18.07021 41.90625,-18.07031 17.76554,1e-4 32.64834,6.49228 44.64843,19.47656 l -13.85156,13.71094 c -8.76571,-9.28117 -18.98445,-13.92179 -30.65625,-13.92188 -9.98443,9e-5 -18.42192,3.28133 -25.3125,9.84375 -7.03128,6.65632 -10.5469,14.95319 -10.54687,24.89063 -3e-5,10.26566 3.63278,18.82034 10.89843,25.66406 7.12496,6.75002 15.8437,10.12501 26.15625,10.125 13.45305,1e-5 22.94523,-5.90623 28.47657,-17.71875 l -29.95313,0 0,-18.49219 52.03125,0 z"
         style="font-size:144px;font-variant:normal;font-weight:bold;font-stretch:normal;fill:#e15275;font-family:Levenim MT;-inkscape-font-specification:Levenim MT;fill-opacity:1"
         id="path3006"
         inkscape:connector-curvature="0" />
      <path
         d="m 452.27526,335.96768 c -7e-5,8.90626 -3.09381,16.07813 -9.28125,21.51562 -5.9063,5.20313 -13.38286,7.80469 -22.42969,7.80469 -14.67189,0 -25.75782,-7.47656 -33.25781,-22.42969 l 16.52344,-9.98437 c 4.96873,9.14064 10.68747,13.71095 17.15625,13.71093 2.99996,2e-5 5.67183,-0.86717 8.01562,-2.60156 2.62496,-1.87498 3.93746,-4.2656 3.9375,-7.17187 -4e-5,-3.04685 -1.73442,-6.39841 -5.20312,-10.05469 -1.35942,-1.45309 -4.31254,-4.03121 -8.85938,-7.73438 -8.4844,-6.93745 -14.25002,-12.14057 -17.29687,-15.60937 -6.28126,-7.07806 -9.42188,-13.94524 -9.42188,-20.60156 0,-7.59367 2.88281,-13.89835 8.64844,-18.91407 5.48436,-4.82802 12.07029,-7.24208 19.75781,-7.24218 10.35933,1e-4 20.32026,5.55478 29.88282,16.66406 l -14.55469,12.86719 c -5.10942,-7.12492 -10.31254,-10.68742 -15.60938,-10.6875 -2.15628,8e-5 -4.10159,0.56258 -5.83593,1.6875 -1.96878,1.31258 -2.95315,3.00008 -2.95313,5.0625 -2e-5,1.73445 0.58591,3.37507 1.75781,4.92187 1.6406,2.15632 6.44528,6.58601 14.41407,13.28906 7.64057,6.42193 12.18744,10.38287 13.64062,11.88282 7.31244,7.45316 10.96868,15.32816 10.96875,23.625 z"
         style="font-size:144px;font-variant:normal;font-weight:bold;font-stretch:normal;fill:#e15275;font-family:Levenim MT;-inkscape-font-specification:Levenim MT;fill-opacity:1"
         id="path3008"
         inkscape:connector-curvature="0" />
    </g>
  </g>
</svg>
